<svg xmlns="http://www.w3.org/2000/svg" viewBox="0 0 1600 1000" preserveAspectRatio="xMidYMid slice">
  <defs>
    <linearGradient id="base" x1="0" y1="0" x2="1" y2="1">
      <stop offset="0%" stop-color="#9fb4bf"/>
      <stop offset="42%" stop-color="#d7ddd5"/>
      <stop offset="100%" stop-color="#003f69"/>
    </linearGradient>
    <radialGradient id="glow" cx="83%" cy="4%" r="40%">
      <stop offset="0%" stop-color="#f5f2e8" stop-opacity="0.98"/>
      <stop offset="100%" stop-color="#f5f2e8" stop-opacity="0"/>
    </radialGradient>
    <linearGradient id="curveA" x1="0" y1="0" x2="1" y2="1">
      <stop offset="0%" stop-color="#e2e9e4" stop-opacity="0.88"/>
      <stop offset="100%" stop-color="#2d6f97" stop-opacity="0.08"/>
    </linearGradient>
    <linearGradient id="curveB" x1="0" y1="0" x2="1" y2="1">
      <stop offset="0%" stop-color="#83a6b6" stop-opacity="0.26"/>
      <stop offset="100%" stop-color="#004f7e" stop-opacity="0.7"/>
    </linearGradient>
    <filter id="softBlur" x="-20%" y="-20%" width="140%" height="140%">
      <feGaussianBlur stdDeviation="18"/>
    </filter>
  </defs>

  <rect width="1600" height="1000" fill="url(#base)"/>
  <rect width="1600" height="1000" fill="url(#glow)"/>

  <path d="M0,760 C180,650 320,690 540,590 C730,502 885,302 1070,240 C1260,172 1448,272 1600,182 L1600,1000 L0,1000 Z"
        fill="url(#curveA)"/>

  <path d="M0,820 C250,760 430,795 630,705 C875,594 1030,433 1205,362 C1368,296 1496,336 1600,290 L1600,1000 L0,1000 Z"
        fill="url(#curveB)"/>

  <path d="M0,1000 L0,690 C220,608 390,638 590,568 C810,492 996,314 1174,210 C1337,115 1472,80 1600,78 L1600,0 L0,0 Z"
        fill="#ffffff" opacity="0.09" filter="url(#softBlur)"/>
</svg>
